<svg width="16" height="16" viewBox="0 0 16 16" fill="none" xmlns="http://www.w3.org/2000/svg">
<rect x="1" y="1" width="14" height="14" fill="#FB7C33"/>
<rect x="1.5" y="1.5" width="13" height="13" fill="#261302"/>
<path d="M5.98504 9.58031L5.51693 11.437C5.50725 11.4877 5.48789 11.5 5.42911 11.5H4.56135C4.50327 11.5 4.49359 11.4797 4.50327 11.408L6.18072 5.25049C6.20976 5.13821 6.22981 5.04114 6.23949 4.73471C6.23949 4.69414 6.25885 4.67313 6.28858 4.67313H7.52696C7.56568 4.67313 7.58573 4.68328 7.59541 4.73471L9.47752 11.4181C9.4872 11.4689 9.47752 11.5 9.42843 11.5H8.45349C8.40509 11.5 8.37536 11.4877 8.36568 11.4471L7.87821 9.58031H5.98504ZM7.63275 8.5741L6.93093 5.66413L6.2388 8.5741H7.63275ZM10.2914 5.13314C10.2914 4.73471 10.5548 4.5 10.8957 4.5C11.2566 4.5 11.5 4.75572 11.5 5.13314C11.5 5.54171 11.2462 5.76627 10.886 5.76627C10.5347 5.76627 10.2914 5.54171 10.2914 5.13314ZM10.3577 6.54067C10.3577 6.48924 10.3771 6.46895 10.4262 6.46895H11.3534C11.4025 6.46895 11.4219 6.48924 11.4219 6.54067V11.4283C11.4219 11.4797 11.4122 11.5 11.3534 11.5H10.4359C10.3771 11.5 10.3577 11.4696 10.3577 11.4181V6.54067Z" fill="#FB7C33"/>
</svg>
