<svg width="21" height="21" viewBox="0 0 21 21" fill="none" xmlns="http://www.w3.org/2000/svg">
<path d="M14.6667 18.4757H6.33332C3.29166 18.4757 1.54166 16.7257 1.54166 13.6841V7.85075C1.54166 4.80908 3.29166 3.05908 6.33332 3.05908H14.6667C17.7083 3.05908 19.4583 4.80908 19.4583 7.85075V13.6841C19.4583 16.7257 17.7083 18.4757 14.6667 18.4757ZM6.33332 4.30908C3.94999 4.30908 2.79166 5.46742 2.79166 7.85075V13.6841C2.79166 16.0674 3.94999 17.2257 6.33332 17.2257H14.6667C17.05 17.2257 18.2083 16.0674 18.2083 13.6841V7.85075C18.2083 5.46742 17.05 4.30908 14.6667 4.30908H6.33332Z" fill="white"/>
<path d="M10.4998 11.4925C9.79982 11.4925 9.09149 11.2759 8.54983 10.8342L5.94149 8.75089C5.67482 8.53422 5.62483 8.14255 5.84149 7.87589C6.05816 7.60922 6.44983 7.55922 6.7165 7.77589L9.32482 9.85922C9.95816 10.3676 11.0332 10.3676 11.6665 9.85922L14.2748 7.77589C14.5415 7.55922 14.9415 7.60089 15.1498 7.87589C15.3665 8.14255 15.3248 8.54255 15.0498 8.75089L12.4415 10.8342C11.9082 11.2759 11.1998 11.4925 10.4998 11.4925Z" fill="white"/>
</svg>
