<svg width="25" height="25" viewBox="0 0 25 25" fill="none" xmlns="http://www.w3.org/2000/svg">
<g clip-path="url(#clip0_748_2089)">
<path d="M12.5 2.41374C15.7063 2.41374 16.0859 2.42781 17.3469 2.48406C18.5188 2.53562 19.1516 2.7325 19.5734 2.89656C20.1313 3.11218 20.5344 3.37468 20.9516 3.79187C21.3734 4.21375 21.6313 4.61218 21.8469 5.17C22.0109 5.59187 22.2078 6.22937 22.2594 7.39656C22.3156 8.66218 22.3297 9.04187 22.3297 12.2434C22.3297 15.4497 22.3156 15.8294 22.2594 17.0903C22.2078 18.2622 22.0109 18.895 21.8469 19.3169C21.6313 19.8747 21.3688 20.2778 20.9516 20.695C20.5297 21.1169 20.1313 21.3747 19.5734 21.5903C19.1516 21.7544 18.5141 21.9512 17.3469 22.0028C16.0813 22.0591 15.7016 22.0731 12.5 22.0731C9.29375 22.0731 8.91406 22.0591 7.65313 22.0028C6.48125 21.9512 5.84844 21.7544 5.42656 21.5903C4.86875 21.3747 4.46563 21.1122 4.04844 20.695C3.62656 20.2731 3.36875 19.8747 3.15313 19.3169C2.98906 18.895 2.79219 18.2575 2.74063 17.0903C2.68438 15.8247 2.67031 15.445 2.67031 12.2434C2.67031 9.03718 2.68438 8.65749 2.74063 7.39656C2.79219 6.22468 2.98906 5.59187 3.15313 5.17C3.36875 4.61218 3.63125 4.20906 4.04844 3.79187C4.47031 3.37 4.86875 3.11218 5.42656 2.89656C5.84844 2.7325 6.48594 2.53562 7.65313 2.48406C8.91406 2.42781 9.29375 2.41374 12.5 2.41374ZM12.5 0.252808C9.24219 0.252808 8.83438 0.26687 7.55469 0.32312C6.27969 0.37937 5.40313 0.58562 4.64375 0.880933C3.85156 1.19031 3.18125 1.59812 2.51563 2.26843C1.84531 2.93406 1.4375 3.60437 1.12813 4.39187C0.832812 5.15593 0.626563 6.02781 0.570313 7.30281C0.514063 8.58718 0.5 8.995 0.5 12.2528C0.5 15.5106 0.514063 15.9184 0.570313 17.1981C0.626563 18.4731 0.832812 19.3497 1.12813 20.1091C1.4375 20.9012 1.84531 21.5716 2.51563 22.2372C3.18125 22.9028 3.85156 23.3153 4.63906 23.62C5.40313 23.9153 6.275 24.1216 7.55 24.1778C8.82969 24.2341 9.2375 24.2481 12.4953 24.2481C15.7531 24.2481 16.1609 24.2341 17.4406 24.1778C18.7156 24.1216 19.5922 23.9153 20.3516 23.62C21.1391 23.3153 21.8094 22.9028 22.475 22.2372C23.1406 21.5716 23.5531 20.9012 23.8578 20.1137C24.1531 19.3497 24.3594 18.4778 24.4156 17.2028C24.4719 15.9231 24.4859 15.5153 24.4859 12.2575C24.4859 8.99968 24.4719 8.59187 24.4156 7.31218C24.3594 6.03718 24.1531 5.16062 23.8578 4.40125C23.5625 3.60437 23.1547 2.93406 22.4844 2.26843C21.8188 1.60281 21.1484 1.19031 20.3609 0.88562C19.5969 0.590308 18.725 0.384058 17.45 0.327808C16.1656 0.26687 15.7578 0.252808 12.5 0.252808Z" fill="white"/>
<path d="M12.5 6.08875C9.09688 6.08875 6.33594 8.84968 6.33594 12.2528C6.33594 15.6559 9.09688 18.4169 12.5 18.4169C15.9031 18.4169 18.6641 15.6559 18.6641 12.2528C18.6641 8.84968 15.9031 6.08875 12.5 6.08875ZM12.5 16.2512C10.2922 16.2512 8.50156 14.4606 8.50156 12.2528C8.50156 10.045 10.2922 8.25437 12.5 8.25437C14.7078 8.25437 16.4984 10.045 16.4984 12.2528C16.4984 14.4606 14.7078 16.2512 12.5 16.2512Z" fill="white"/>
<path d="M20.3469 5.84495C20.3469 6.64182 19.7 7.28401 18.9078 7.28401C18.1109 7.28401 17.4688 6.63714 17.4688 5.84495C17.4688 5.04807 18.1156 4.40588 18.9078 4.40588C19.7 4.40588 20.3469 5.05276 20.3469 5.84495Z" fill="white"/>
</g>
<defs>
<clipPath id="clip0_748_2089">
<rect width="24" height="24" fill="white" transform="translate(0.5 0.252808)"/>
</clipPath>
</defs>
</svg>
