<svg width="25" height="25" viewBox="0 0 25 25" fill="none" xmlns="http://www.w3.org/2000/svg">
<g clip-path="url(#clip0_748_2091)">
<path d="M22.7234 0.252808H2.27187C1.29219 0.252808 0.5 1.02625 0.5 1.9825V22.5184C0.5 23.4747 1.29219 24.2528 2.27187 24.2528H22.7234C23.7031 24.2528 24.5 23.4747 24.5 22.5231V1.9825C24.5 1.02625 23.7031 0.252808 22.7234 0.252808ZM7.62031 20.7044H4.05781V9.24812H7.62031V20.7044ZM5.83906 7.68718C4.69531 7.68718 3.77188 6.76374 3.77188 5.62468C3.77188 4.48562 4.69531 3.56218 5.83906 3.56218C6.97813 3.56218 7.90156 4.48562 7.90156 5.62468C7.90156 6.75906 6.97813 7.68718 5.83906 7.68718ZM20.9516 20.7044H17.3937V15.1356C17.3937 13.8091 17.3703 12.0981 15.5422 12.0981C13.6906 12.0981 13.4094 13.5466 13.4094 15.0419V20.7044H9.85625V9.24812H13.2687V10.8137H13.3156C13.7891 9.91375 14.9516 8.96218 16.6813 8.96218C20.2859 8.96218 20.9516 11.3341 20.9516 14.4184V20.7044V20.7044Z" fill="white"/>
</g>
<defs>
<clipPath id="clip0_748_2091">
<rect width="24" height="24" fill="white" transform="translate(0.5 0.252808)"/>
</clipPath>
</defs>
</svg>
