<svg width="80" height="68" viewBox="0 0 80 68" fill="none" xmlns="http://www.w3.org/2000/svg">
<path d="M9.024 45.224C6.784 45.224 4.93867 44.7227 3.488 43.72C2.05867 42.696 1.344 41.2667 1.344 39.432C1.344 39.24 1.36533 38.952 1.408 38.568H5.984C5.89867 39.464 6.13333 40.2 6.688 40.776C7.264 41.352 8.096 41.64 9.184 41.64C10.272 41.64 11.1253 41.416 11.744 40.968C12.384 40.4987 12.704 39.8373 12.704 38.984C12.704 38.1947 12.3733 37.5653 11.712 37.096C11.072 36.6267 10.0587 36.104 8.672 35.528C7.392 34.9947 6.34667 34.504 5.536 34.056C4.74667 33.608 4.064 32.9893 3.488 32.2C2.93333 31.3893 2.656 30.376 2.656 29.16C2.656 27.7733 3.008 26.568 3.712 25.544C4.43733 24.52 5.41867 23.7307 6.656 23.176C7.91467 22.6213 9.344 22.344 10.944 22.344C12.5227 22.344 13.888 22.6107 15.04 23.144C16.2133 23.656 17.088 24.392 17.664 25.352C18.2613 26.312 18.5173 27.432 18.432 28.712H13.664L13.696 28.36C13.696 27.656 13.4293 27.08 12.896 26.632C12.384 26.184 11.6587 25.96 10.72 25.96C9.71733 25.96 8.90667 26.1947 8.288 26.664C7.66933 27.1333 7.36 27.7733 7.36 28.584C7.36 29.1173 7.53067 29.5867 7.872 29.992C8.23467 30.376 8.672 30.7173 9.184 31.016C9.696 31.2933 10.432 31.656 11.392 32.104C12.6507 32.6587 13.6853 33.1813 14.496 33.672C15.3067 34.1627 16 34.8133 16.576 35.624C17.152 36.4347 17.44 37.4267 17.44 38.6C17.44 39.88 17.088 41.0213 16.384 42.024C15.7013 43.0267 14.72 43.816 13.44 44.392C12.1813 44.9467 10.7093 45.224 9.024 45.224ZM39.2433 22.664L38.6033 26.184H32.6833L29.3553 45H24.8433L28.1713 26.184H22.2193L22.8593 22.664H39.2433ZM47.024 45.224C44.784 45.224 42.9387 44.7227 41.488 43.72C40.0587 42.696 39.344 41.2667 39.344 39.432C39.344 39.24 39.3653 38.952 39.408 38.568H43.984C43.8987 39.464 44.1333 40.2 44.688 40.776C45.264 41.352 46.096 41.64 47.184 41.64C48.272 41.64 49.1253 41.416 49.744 40.968C50.384 40.4987 50.704 39.8373 50.704 38.984C50.704 38.1947 50.3733 37.5653 49.712 37.096C49.072 36.6267 48.0587 36.104 46.672 35.528C45.392 34.9947 44.3467 34.504 43.536 34.056C42.7467 33.608 42.064 32.9893 41.488 32.2C40.9333 31.3893 40.656 30.376 40.656 29.16C40.656 27.7733 41.008 26.568 41.712 25.544C42.4373 24.52 43.4187 23.7307 44.656 23.176C45.9147 22.6213 47.344 22.344 48.944 22.344C50.5227 22.344 51.888 22.6107 53.04 23.144C54.2133 23.656 55.088 24.392 55.664 25.352C56.2613 26.312 56.5173 27.432 56.432 28.712H51.664L51.696 28.36C51.696 27.656 51.4293 27.08 50.896 26.632C50.384 26.184 49.6587 25.96 48.72 25.96C47.7173 25.96 46.9067 26.1947 46.288 26.664C45.6693 27.1333 45.36 27.7733 45.36 28.584C45.36 29.1173 45.5307 29.5867 45.872 29.992C46.2347 30.376 46.672 30.7173 47.184 31.016C47.696 31.2933 48.432 31.656 49.392 32.104C50.6507 32.6587 51.6853 33.1813 52.496 33.672C53.3067 34.1627 54 34.8133 54.576 35.624C55.152 36.4347 55.44 37.4267 55.44 38.6C55.44 39.88 55.088 41.0213 54.384 42.024C53.7013 43.0267 52.72 43.816 51.44 44.392C50.1813 44.9467 48.7093 45.224 47.024 45.224ZM79.8033 22.664L69.6913 37.224L68.3153 45H63.8033L65.2113 37.224L60.1873 22.664H65.2433L68.2193 32.808L74.7473 22.664H79.8033Z" fill="#C4A7E9"/>
</svg>
