<svg width="16" height="16" viewBox="0 0 16 16" fill="none" xmlns="http://www.w3.org/2000/svg">
<g clip-path="url(#clip0_748_2012)">
<path fill-rule="evenodd" clip-rule="evenodd" d="M2.858 14.6089L1.13832 12.4666C0.724565 11.9511 0.5 11.3173 0.5 10.6649V2.90749C0.5 1.93032 1.28179 1.11948 2.29036 1.05063L10.2661 0.506091C10.8455 0.466531 11.4214 0.620545 11.8974 0.942352L14.6996 2.83696C15.2012 3.17609 15.5 3.73049 15.5 4.32213V13.1416C15.5 14.0979 14.7313 14.8896 13.7438 14.9504L4.89167 15.4953C4.10367 15.5438 3.342 15.2118 2.858 14.6089Z" fill="white"/>
<path d="M5.62404 6.78935V6.68779C5.62404 6.43035 5.83023 6.21683 6.09598 6.19909L8.03165 6.06986L10.7085 10.0118V6.55207L10.0195 6.46022V6.41198C10.0195 6.15151 10.2304 5.93659 10.4995 5.9228L12.2608 5.83258V6.08604C12.2608 6.20502 12.1723 6.3068 12.051 6.32731L11.6272 6.39899V12.0018L11.0953 12.1848C10.6509 12.3376 10.1562 12.174 9.9018 11.7901L7.30303 7.86859V11.6115L8.10292 11.7646L8.09178 11.8388C8.05687 12.0712 7.85622 12.2469 7.61349 12.2577L5.62404 12.3463C5.59775 12.0964 5.78505 11.8728 6.04345 11.8456L6.30514 11.8181V6.82762L5.62404 6.78935Z" fill="black"/>
<path fill-rule="evenodd" clip-rule="evenodd" d="M10.3374 1.48339L2.36174 2.02793C1.88399 2.06054 1.51367 2.44462 1.51367 2.90749V10.6649C1.51367 11.0998 1.66338 11.5224 1.93922 11.866L3.6589 14.0083C3.93694 14.3547 4.37449 14.5454 4.82718 14.5176L13.6793 13.9727C14.133 13.9447 14.4862 13.581 14.4862 13.1416V4.32213C14.4862 4.0503 14.3489 3.79557 14.1185 3.63975L11.3162 1.74515C11.0306 1.55206 10.6851 1.45966 10.3374 1.48339ZM2.75723 3.0285C2.64631 2.94637 2.6991 2.77527 2.83845 2.76528L10.3911 2.22355C10.6317 2.20629 10.8709 2.27256 11.0655 2.41044L12.5808 3.48406C12.6384 3.52482 12.6114 3.61282 12.5402 3.61669L4.54194 4.05168C4.29988 4.06485 4.06096 3.99374 3.86851 3.85125L2.75723 3.0285ZM4.16679 5.41536C4.16679 5.15552 4.37671 4.94088 4.64513 4.92626L13.1015 4.46573C13.3631 4.45148 13.5834 4.65267 13.5834 4.90591V12.5426C13.5834 12.802 13.3742 13.0164 13.1063 13.0317L4.70344 13.5098C4.4123 13.5263 4.16679 13.3026 4.16679 13.0207V5.41536Z" fill="black"/>
</g>
<defs>
<clipPath id="clip0_748_2012">
<rect width="16" height="16" fill="white"/>
</clipPath>
</defs>
</svg>
