<svg width="16" height="16" viewBox="0 0 16 16" fill="none" xmlns="http://www.w3.org/2000/svg">
<rect x="1" y="1" width="14" height="14" fill="#32CAFA"/>
<rect x="1.5" y="1.5" width="13" height="13" fill="#021D25"/>
<path d="M4 4.60463C4 4.56308 4.0897 4.53117 4.14159 4.53117C4.5493 4.51039 5.14752 4.5 5.77539 4.5C7.53151 4.5 8.21572 5.46321 8.21572 6.69729C8.21572 8.30907 7.04818 8.99995 5.61601 8.99995C5.37583 8.99995 5.29207 8.98956 5.12454 8.98956V11.4265C5.12454 11.4792 5.10378 11.5 5.05115 11.5H4.07339C4.02076 11.5 4 11.4792 4 11.4265V4.60463ZM5.12454 7.9744C5.27057 7.98479 5.38621 7.98479 5.63677 7.98479C6.3788 7.98479 7.07635 7.72283 7.07635 6.71881C7.07635 5.91291 6.57821 5.50477 5.73091 5.50477C5.48036 5.50477 5.23944 5.51516 5.12454 5.52555V7.9744ZM10.5782 7.22045C10.0764 7.22045 9.90882 7.47201 9.90882 7.68128C9.90882 7.91132 10.0237 8.06864 10.6931 8.41371C11.6864 8.89531 12 9.3554 12 10.0359C12 11.051 11.2261 11.5 10.1809 11.5C9.62713 11.5 9.15493 11.3879 8.88362 11.2306C8.84211 11.2098 8.83099 11.1787 8.83099 11.126V10.2867C8.83099 10.2236 8.86212 10.2029 8.90437 10.234C9.30171 10.496 9.76279 10.611 10.1809 10.611C10.6827 10.611 10.8918 10.4017 10.8918 10.119C10.8918 9.88895 10.7457 9.69008 10.1075 9.3554C9.2083 8.92648 8.83173 8.48643 8.83173 7.754C8.83173 6.93772 9.46924 6.32235 10.5775 6.32235C11.1208 6.32235 11.5048 6.34109 11.7139 6.43533C11.7665 6.4665 11.7769 6.51919 11.7769 6.56074V7.42971C11.7769 7.48166 11.7457 7.51357 11.6827 7.49279C11.4811 7.37308 11.0801 7.22045 10.5782 7.22045Z" fill="#32CAFA"/>
</svg>
