<svg width="16" height="16" viewBox="0 0 16 16" fill="none" xmlns="http://www.w3.org/2000/svg">
<path d="M13.2501 7.49979C13.9404 7.49979 14.5 6.94019 14.5 6.24989V6.24989C14.5 5.5596 13.9404 5 13.2501 5V5C12.5597 5 12 5.55964 12 6.25V7.49979H13.2501ZM9.75 7.49979C10.4404 7.49979 11 6.94014 11 6.24979V2.75C11 2.05964 10.4404 1.5 9.75 1.5V1.5C9.05964 1.5 8.5 2.05964 8.5 2.75V6.24979C8.5 6.94014 9.05964 7.49979 9.75 7.49979V7.49979Z" fill="#2EB67D"/>
<path d="M2.74989 8.50021C2.0596 8.50021 1.5 9.05981 1.5 9.75011V9.75011C1.5 10.4404 2.05965 11 2.74995 11V11C3.4403 11 4 10.4404 4 9.75V8.50021H2.74989ZM6.25 8.50021C5.55964 8.50021 5 9.05986 5 9.75021V13.25C5 13.9404 5.55964 14.5 6.25 14.5V14.5C6.94036 14.5 7.5 13.9404 7.5 13.25V9.75021C7.5 9.05986 6.94036 8.50021 6.25 8.50021V8.50021Z" fill="#E01E5A"/>
<path d="M8.50009 13.2501C8.50009 13.9404 9.05969 14.5 9.74998 14.5V14.5C10.4403 14.5 10.9999 13.9403 10.9999 13.2501V13.2501C10.9999 12.5597 10.4402 12 9.74988 12L8.50009 12L8.50009 13.2501ZM8.50009 9.75C8.50009 10.4404 9.05974 11 9.75009 11L13.2499 11C13.9402 11 14.4999 10.4404 14.4999 9.75V9.75C14.4999 9.05964 13.9402 8.5 13.2499 8.5L9.75009 8.5C9.05974 8.5 8.50009 9.05964 8.50009 9.75V9.75Z" fill="#ECB22E"/>
<path d="M7.49991 2.74989C7.49991 2.0596 6.94031 1.5 6.25002 1.5V1.5C5.55972 1.5 5.00012 2.05965 5.00012 2.74995V2.74995C5.00012 3.4403 5.55977 4 6.25012 4L7.49991 4L7.49991 2.74989ZM7.49991 6.25C7.49991 5.55964 6.94026 5 6.24991 5L2.75012 5C2.05977 5 1.50012 5.55964 1.50012 6.25V6.25C1.50012 6.94036 2.05977 7.5 2.75012 7.5L6.24991 7.5C6.94026 7.5 7.49991 6.94036 7.49991 6.25V6.25Z" fill="#36C5F0"/>
</svg>
