<svg width="25" height="25" viewBox="0 0 25 25" fill="none" xmlns="http://www.w3.org/2000/svg">
<g clip-path="url(#clip0_748_2090)">
<path d="M17.5725 0.252808H13.5278V16.6006C13.5278 18.5485 11.9722 20.1485 10.0363 20.1485C8.10034 20.1485 6.54469 18.5485 6.54469 16.6006C6.54469 14.6876 8.06577 13.1223 9.93257 13.0528V8.94847C5.81872 9.01801 2.5 12.3919 2.5 16.6006C2.5 20.8441 5.88786 24.2528 10.0708 24.2528C14.2538 24.2528 17.6416 20.8093 17.6416 16.6006V8.21801C19.1627 9.33107 21.0295 9.99194 23 10.0267V5.92237C19.9579 5.81803 17.5725 3.31367 17.5725 0.252808Z" fill="white"/>
</g>
<defs>
<clipPath id="clip0_748_2090">
<rect width="24" height="24" fill="white" transform="translate(0.5 0.252808)"/>
</clipPath>
</defs>
</svg>
